<svg width="65" height="65" viewBox="0 0 65 65" fill="none" xmlns="http://www.w3.org/2000/svg">
    <rect width="65" height="65" rx="25" fill="#8E9775" />
    <path
        d="M42.4154 33.5552C41.8412 39.2781 36.3744 43.4865 30.1962 42.9547C24.018 42.4229 19.4748 37.3589 20.0489 31.636C20.5482 26.6415 24.8168 22.699 30.1962 22.2366C27.3255 25.8322 28.1493 30.8961 32.031 33.5552C35.1138 35.6594 39.3325 35.6594 42.4154 33.5552Z"
        stroke="#FAF2DA" stroke-width="2" stroke-linecap="round" stroke-linejoin="round" />
    <path
        d="M38.3215 29.0023C38.1967 28.9098 38.0469 28.8752 37.8971 28.8867H35.5881L37.7598 26.6438L37.972 26.4357L38.0968 26.2854C38.1343 26.2391 38.1592 26.1813 38.1842 26.1351C38.2091 26.0772 38.2216 26.0194 38.2216 25.9501C38.2341 25.7998 38.1592 25.661 38.0219 25.5801C37.8472 25.4992 37.6475 25.4645 37.4478 25.476H34.7269C34.5896 25.4645 34.4398 25.5107 34.3275 25.5917C34.2276 25.661 34.1777 25.7766 34.1777 25.8923C34.1777 26.0657 34.2401 26.1697 34.3649 26.216C34.5396 26.2622 34.7269 26.2854 34.9141 26.2738H36.6739C36.5991 26.3663 36.5117 26.4819 36.3869 26.6091L35.9376 27.0831L35.3384 27.7074L34.652 28.4358C34.4024 28.6902 34.2401 28.8636 34.1652 28.9561C34.003 29.1526 34.0279 29.4186 34.2151 29.592C34.3649 29.696 34.5396 29.7423 34.7144 29.7307H37.9096C38.0594 29.7423 38.2091 29.696 38.334 29.6151C38.4213 29.5342 38.4713 29.4301 38.4713 29.3145C38.4713 29.1873 38.4213 29.0833 38.3215 29.0023Z"
        fill="#FAF2DA" />
    <path
        d="M45.5357 25.4183C45.386 25.3027 45.1987 25.2564 45.0115 25.268H42.1034L44.8243 22.4585L45.0739 22.1926L45.2362 22.0076C45.2861 21.9498 45.3235 21.8804 45.3485 21.8111C45.386 21.7417 45.3984 21.6608 45.3984 21.5798C45.4234 21.3949 45.3235 21.2099 45.1488 21.1174C44.9117 21.0364 44.662 20.9902 44.4124 21.0018H41.005C40.8303 20.9902 40.6431 21.0364 40.5058 21.1405C40.3934 21.233 40.3185 21.3717 40.331 21.522C40.331 21.7417 40.4059 21.8689 40.5682 21.9151C40.7928 21.9729 41.0175 21.9961 41.2546 21.9961H43.4514C43.364 22.1117 43.2392 22.2504 43.0894 22.4123L42.5153 23.0135L41.7664 23.7765L40.8802 24.6899C40.5682 25.0136 40.3685 25.2217 40.2811 25.3258C40.0689 25.5686 40.0939 25.927 40.3435 26.1467C40.5307 26.2738 40.7554 26.3317 40.98 26.3201H44.9866C45.1863 26.3432 45.3735 26.297 45.5357 26.1929C45.6481 26.1004 45.7229 25.9617 45.7105 25.8114C45.7229 25.6611 45.6605 25.5223 45.5357 25.4183Z"
        fill="#FAF2DA" />
</svg>