<svg width="66" height="66" viewBox="0 0 66 66" fill="none" xmlns="http://www.w3.org/2000/svg">
    <rect x="0.5" y="0.162842" width="65" height="65" rx="25" fill="#8E9775" />
    <mask id="path-2-outside-1_2318_723" maskUnits="userSpaceOnUse" x="18.3638" y="19.1627" width="29" height="27"
        fill="black">
        <rect fill="#FAF2DA" x="18.3638" y="19.1627" width="29" height="27" />
        <path
            d="M44.0064 30.9669C43.1129 27.4892 40.6078 24.5983 37.2275 23.2473C36.6436 21.4239 34.9268 20.1627 33.0001 20.1627C31.0241 20.1627 29.3463 21.4609 28.7729 23.249C26.7371 24.0644 24.9937 25.44 23.7183 27.242C22.9125 28.3805 22.3316 29.6391 21.9914 30.9671C20.5243 31.0766 19.3638 32.3045 19.3638 33.7991C19.3638 35.2945 20.5255 36.523 21.9938 36.6314C23.2555 41.5314 27.7116 45.1627 33.0001 45.1627C38.2884 45.1627 42.7446 41.5314 44.0062 36.6314C45.4745 36.523 46.6363 35.2945 46.6363 33.799C46.6363 32.3037 45.4746 31.0753 44.0064 30.9669ZM20.5002 33.799C20.5002 33.0149 21.0325 32.3529 21.7546 32.155C21.7058 32.4931 21.6718 32.8345 21.6534 33.1786C21.6531 33.1834 21.6529 33.1881 21.6526 33.1929C21.6493 33.2555 21.6464 33.3182 21.6442 33.381C21.6433 33.4048 21.6428 33.4286 21.6421 33.4524C21.6408 33.4975 21.6393 33.5425 21.6385 33.5876C21.6372 33.6581 21.6365 33.7286 21.6365 33.799C21.6365 33.8851 21.6378 33.971 21.6399 34.0571C21.6404 34.0841 21.6412 34.1109 21.642 34.1378C21.6438 34.2003 21.6463 34.2629 21.6492 34.3255C21.6503 34.352 21.6514 34.3786 21.6527 34.4052C21.6569 34.4832 21.6619 34.5612 21.6676 34.6392C21.6703 34.6759 21.6735 34.7123 21.6765 34.7488C21.6804 34.7951 21.6844 34.8414 21.6889 34.8875C21.6927 34.9282 21.6967 34.969 21.7011 35.0095C21.7061 35.057 21.7118 35.1045 21.7174 35.1519C21.7248 35.214 21.7327 35.276 21.7411 35.3377C21.7459 35.3731 21.7503 35.4084 21.7554 35.4435C21.0329 35.2459 20.5002 34.5834 20.5002 33.799ZM33.0001 21.2992C34.1254 21.2992 35.1547 21.8771 35.7555 22.7817C35.7442 22.7816 35.7328 22.7816 35.7215 22.7816C35.7141 22.7816 35.707 22.7821 35.6996 22.7822C35.6968 22.7823 35.6939 22.7822 35.6911 22.7824C33.9219 22.7988 32.4878 24.2425 32.4878 26.0153C32.4878 26.7052 32.7045 27.3612 33.0939 27.9024C33.0627 27.9032 33.0313 27.9037 33.0001 27.9037C31.1793 27.9037 29.6979 26.4223 29.6979 24.6015C29.6979 22.7806 31.1792 21.2992 33.0001 21.2992ZM43.2235 34.0682C43.2232 34.0821 43.2224 34.0958 43.222 34.1097C43.2197 34.1858 43.2169 34.262 43.2129 34.3381C43.2122 34.3517 43.2111 34.3653 43.2103 34.3788C43.206 34.4548 43.2012 34.5309 43.1953 34.6069C43.1941 34.6222 43.1924 34.6374 43.1912 34.6528C43.1851 34.7262 43.1784 34.7995 43.1708 34.8728C43.1687 34.8932 43.1661 34.9135 43.1638 34.9338C43.1564 35.0009 43.1486 35.0679 43.1399 35.1349C43.1362 35.1629 43.132 35.1908 43.1281 35.2187C43.1201 35.2766 43.1119 35.3344 43.1028 35.3921C43.0969 35.4297 43.0905 35.467 43.0841 35.5044C43.0763 35.5511 43.0685 35.5978 43.06 35.6443C43.0513 35.6917 43.0421 35.7388 43.0328 35.7858C43.0259 35.8211 43.0189 35.8564 43.0116 35.8916C42.0433 40.5307 37.9222 44.0263 33 44.0263C28.0741 44.0263 23.9506 40.5257 22.9862 35.8816C22.9774 35.8395 22.9694 35.7972 22.9612 35.7549C22.9534 35.7145 22.9453 35.6741 22.938 35.6336C22.9275 35.5762 22.918 35.5185 22.9085 35.4608C22.9042 35.4344 22.8994 35.4079 22.8953 35.3814C22.8841 35.3084 22.8737 35.2354 22.8639 35.1621C22.8623 35.1497 22.8602 35.1374 22.8587 35.1249C22.8475 35.0387 22.8373 34.9522 22.8283 34.8657C22.8283 34.8653 22.8282 34.8648 22.8282 34.8645C22.7914 34.5108 22.7728 34.1549 22.7728 33.7992C22.7728 33.7189 22.7741 33.6386 22.776 33.5583C22.7767 33.532 22.7775 33.5056 22.7784 33.4793C22.78 33.4253 22.7823 33.3713 22.7848 33.3173C22.7863 33.2859 22.7876 33.2544 22.7894 33.223C22.7921 33.1752 22.7955 33.1273 22.7989 33.0796C22.8048 32.997 22.8115 32.9146 22.8193 32.8324C22.8202 32.823 22.8209 32.8135 22.8218 32.8042C23.1711 29.2678 25.3612 26.1295 28.5619 24.5836C28.5619 24.5897 28.5615 24.5956 28.5615 24.6016C28.5615 25.0083 28.6175 25.402 28.7205 25.7764C27.7006 26.3195 26.8051 27.0431 26.0544 27.9327C25.852 28.1725 25.8824 28.531 26.1222 28.7333C26.2289 28.8233 26.359 28.8672 26.4884 28.8672C26.65 28.8672 26.8106 28.7986 26.9229 28.6655C27.557 27.914 28.3092 27.2981 29.1633 26.8289C29.9331 28.1498 31.3642 29.0401 33.0001 29.0401C33.5017 29.0401 33.9947 28.9567 34.4649 28.7923C34.6697 28.7206 34.8159 28.5386 34.8416 28.3231C34.8672 28.1077 34.7679 27.8963 34.5856 27.7787C33.9836 27.3898 33.6242 26.7307 33.6242 26.0154C33.6242 24.8824 34.5274 23.957 35.6516 23.9199C39.4258 24.9297 42.2327 27.9814 43.0103 31.7008C43.0232 31.7623 43.0357 31.8239 43.0473 31.8857C43.0534 31.918 43.059 31.9505 43.0649 31.9829C43.074 32.0334 43.0829 32.0841 43.0912 32.1348C43.0962 32.1651 43.1009 32.1955 43.1057 32.226C43.1145 32.2831 43.1229 32.3402 43.1306 32.3974C43.1339 32.4212 43.1374 32.445 43.1405 32.4689C43.1621 32.6349 43.1798 32.8017 43.1933 32.9687C43.1949 32.9878 43.1961 33.0071 43.1975 33.0263C43.2024 33.0906 43.2067 33.1549 43.2103 33.2193C43.2117 33.2443 43.213 33.2693 43.2143 33.2944C43.2174 33.3556 43.2197 33.4169 43.2216 33.4782C43.2224 33.5019 43.2232 33.5256 43.2239 33.5493C43.2259 33.6326 43.2272 33.7159 43.2272 33.7991C43.2271 33.8888 43.2259 33.9786 43.2235 34.0682ZM44.2447 35.4435C44.2509 35.4006 44.2565 35.3575 44.2623 35.3144C44.2684 35.2689 44.2742 35.2233 44.2798 35.1776C44.2868 35.1203 44.2935 35.0628 44.2996 35.0054C44.3036 34.9678 44.3073 34.9301 44.3108 34.8923C44.3156 34.8428 44.3199 34.7934 44.324 34.7439C44.3269 34.7096 44.3299 34.6754 44.3324 34.641C44.3383 34.5621 44.3433 34.4832 44.3475 34.4041C44.3489 34.3787 44.3498 34.3532 44.351 34.3276C44.3539 34.2641 44.3563 34.2006 44.3582 34.137C44.359 34.1105 44.3597 34.084 44.3604 34.0575C44.3623 33.9713 44.3637 33.8852 44.3637 33.799C44.3637 33.724 44.3628 33.6491 44.3613 33.5741C44.3607 33.5469 44.3598 33.5198 44.3591 33.4925C44.3579 33.4455 44.3564 33.3985 44.3547 33.3514C44.3533 33.3179 44.3516 33.2845 44.3501 33.2511C44.3482 33.2106 44.3461 33.1702 44.3437 33.1298C44.3416 33.0935 44.3393 33.0573 44.3368 33.0211C44.3343 32.9838 44.3315 32.9466 44.3286 32.9094C44.3256 32.8716 44.3227 32.8338 44.3193 32.7961C44.3161 32.7597 44.3125 32.7234 44.309 32.687C44.3053 32.6496 44.3018 32.6121 44.2978 32.5746C44.2933 32.5323 44.2881 32.4903 44.2831 32.448C44.2775 32.4011 44.2718 32.3543 44.2656 32.3075C44.2588 32.2565 44.2522 32.2055 44.2448 32.1546C44.9674 32.3522 45.4999 33.0145 45.4999 33.7989C45.4998 34.5835 44.9673 35.2459 44.2447 35.4435Z" />
    </mask>
    <path
        d="M44.0064 30.9669C43.1129 27.4892 40.6078 24.5983 37.2275 23.2473C36.6436 21.4239 34.9268 20.1627 33.0001 20.1627C31.0241 20.1627 29.3463 21.4609 28.7729 23.249C26.7371 24.0644 24.9937 25.44 23.7183 27.242C22.9125 28.3805 22.3316 29.6391 21.9914 30.9671C20.5243 31.0766 19.3638 32.3045 19.3638 33.7991C19.3638 35.2945 20.5255 36.523 21.9938 36.6314C23.2555 41.5314 27.7116 45.1627 33.0001 45.1627C38.2884 45.1627 42.7446 41.5314 44.0062 36.6314C45.4745 36.523 46.6363 35.2945 46.6363 33.799C46.6363 32.3037 45.4746 31.0753 44.0064 30.9669ZM20.5002 33.799C20.5002 33.0149 21.0325 32.3529 21.7546 32.155C21.7058 32.4931 21.6718 32.8345 21.6534 33.1786C21.6531 33.1834 21.6529 33.1881 21.6526 33.1929C21.6493 33.2555 21.6464 33.3182 21.6442 33.381C21.6433 33.4048 21.6428 33.4286 21.6421 33.4524C21.6408 33.4975 21.6393 33.5425 21.6385 33.5876C21.6372 33.6581 21.6365 33.7286 21.6365 33.799C21.6365 33.8851 21.6378 33.971 21.6399 34.0571C21.6404 34.0841 21.6412 34.1109 21.642 34.1378C21.6438 34.2003 21.6463 34.2629 21.6492 34.3255C21.6503 34.352 21.6514 34.3786 21.6527 34.4052C21.6569 34.4832 21.6619 34.5612 21.6676 34.6392C21.6703 34.6759 21.6735 34.7123 21.6765 34.7488C21.6804 34.7951 21.6844 34.8414 21.6889 34.8875C21.6927 34.9282 21.6967 34.969 21.7011 35.0095C21.7061 35.057 21.7118 35.1045 21.7174 35.1519C21.7248 35.214 21.7327 35.276 21.7411 35.3377C21.7459 35.3731 21.7503 35.4084 21.7554 35.4435C21.0329 35.2459 20.5002 34.5834 20.5002 33.799ZM33.0001 21.2992C34.1254 21.2992 35.1547 21.8771 35.7555 22.7817C35.7442 22.7816 35.7328 22.7816 35.7215 22.7816C35.7141 22.7816 35.707 22.7821 35.6996 22.7822C35.6968 22.7823 35.6939 22.7822 35.6911 22.7824C33.9219 22.7988 32.4878 24.2425 32.4878 26.0153C32.4878 26.7052 32.7045 27.3612 33.0939 27.9024C33.0627 27.9032 33.0313 27.9037 33.0001 27.9037C31.1793 27.9037 29.6979 26.4223 29.6979 24.6015C29.6979 22.7806 31.1792 21.2992 33.0001 21.2992ZM43.2235 34.0682C43.2232 34.0821 43.2224 34.0958 43.222 34.1097C43.2197 34.1858 43.2169 34.262 43.2129 34.3381C43.2122 34.3517 43.2111 34.3653 43.2103 34.3788C43.206 34.4548 43.2012 34.5309 43.1953 34.6069C43.1941 34.6222 43.1924 34.6374 43.1912 34.6528C43.1851 34.7262 43.1784 34.7995 43.1708 34.8728C43.1687 34.8932 43.1661 34.9135 43.1638 34.9338C43.1564 35.0009 43.1486 35.0679 43.1399 35.1349C43.1362 35.1629 43.132 35.1908 43.1281 35.2187C43.1201 35.2766 43.1119 35.3344 43.1028 35.3921C43.0969 35.4297 43.0905 35.467 43.0841 35.5044C43.0763 35.5511 43.0685 35.5978 43.06 35.6443C43.0513 35.6917 43.0421 35.7388 43.0328 35.7858C43.0259 35.8211 43.0189 35.8564 43.0116 35.8916C42.0433 40.5307 37.9222 44.0263 33 44.0263C28.0741 44.0263 23.9506 40.5257 22.9862 35.8816C22.9774 35.8395 22.9694 35.7972 22.9612 35.7549C22.9534 35.7145 22.9453 35.6741 22.938 35.6336C22.9275 35.5762 22.918 35.5185 22.9085 35.4608C22.9042 35.4344 22.8994 35.4079 22.8953 35.3814C22.8841 35.3084 22.8737 35.2354 22.8639 35.1621C22.8623 35.1497 22.8602 35.1374 22.8587 35.1249C22.8475 35.0387 22.8373 34.9522 22.8283 34.8657C22.8283 34.8653 22.8282 34.8648 22.8282 34.8645C22.7914 34.5108 22.7728 34.1549 22.7728 33.7992C22.7728 33.7189 22.7741 33.6386 22.776 33.5583C22.7767 33.532 22.7775 33.5056 22.7784 33.4793C22.78 33.4253 22.7823 33.3713 22.7848 33.3173C22.7863 33.2859 22.7876 33.2544 22.7894 33.223C22.7921 33.1752 22.7955 33.1273 22.7989 33.0796C22.8048 32.997 22.8115 32.9146 22.8193 32.8324C22.8202 32.823 22.8209 32.8135 22.8218 32.8042C23.1711 29.2678 25.3612 26.1295 28.5619 24.5836C28.5619 24.5897 28.5615 24.5956 28.5615 24.6016C28.5615 25.0083 28.6175 25.402 28.7205 25.7764C27.7006 26.3195 26.8051 27.0431 26.0544 27.9327C25.852 28.1725 25.8824 28.531 26.1222 28.7333C26.2289 28.8233 26.359 28.8672 26.4884 28.8672C26.65 28.8672 26.8106 28.7986 26.9229 28.6655C27.557 27.914 28.3092 27.2981 29.1633 26.8289C29.9331 28.1498 31.3642 29.0401 33.0001 29.0401C33.5017 29.0401 33.9947 28.9567 34.4649 28.7923C34.6697 28.7206 34.8159 28.5386 34.8416 28.3231C34.8672 28.1077 34.7679 27.8963 34.5856 27.7787C33.9836 27.3898 33.6242 26.7307 33.6242 26.0154C33.6242 24.8824 34.5274 23.957 35.6516 23.9199C39.4258 24.9297 42.2327 27.9814 43.0103 31.7008C43.0232 31.7623 43.0357 31.8239 43.0473 31.8857C43.0534 31.918 43.059 31.9505 43.0649 31.9829C43.074 32.0334 43.0829 32.0841 43.0912 32.1348C43.0962 32.1651 43.1009 32.1955 43.1057 32.226C43.1145 32.2831 43.1229 32.3402 43.1306 32.3974C43.1339 32.4212 43.1374 32.445 43.1405 32.4689C43.1621 32.6349 43.1798 32.8017 43.1933 32.9687C43.1949 32.9878 43.1961 33.0071 43.1975 33.0263C43.2024 33.0906 43.2067 33.1549 43.2103 33.2193C43.2117 33.2443 43.213 33.2693 43.2143 33.2944C43.2174 33.3556 43.2197 33.4169 43.2216 33.4782C43.2224 33.5019 43.2232 33.5256 43.2239 33.5493C43.2259 33.6326 43.2272 33.7159 43.2272 33.7991C43.2271 33.8888 43.2259 33.9786 43.2235 34.0682ZM44.2447 35.4435C44.2509 35.4006 44.2565 35.3575 44.2623 35.3144C44.2684 35.2689 44.2742 35.2233 44.2798 35.1776C44.2868 35.1203 44.2935 35.0628 44.2996 35.0054C44.3036 34.9678 44.3073 34.9301 44.3108 34.8923C44.3156 34.8428 44.3199 34.7934 44.324 34.7439C44.3269 34.7096 44.3299 34.6754 44.3324 34.641C44.3383 34.5621 44.3433 34.4832 44.3475 34.4041C44.3489 34.3787 44.3498 34.3532 44.351 34.3276C44.3539 34.2641 44.3563 34.2006 44.3582 34.137C44.359 34.1105 44.3597 34.084 44.3604 34.0575C44.3623 33.9713 44.3637 33.8852 44.3637 33.799C44.3637 33.724 44.3628 33.6491 44.3613 33.5741C44.3607 33.5469 44.3598 33.5198 44.3591 33.4925C44.3579 33.4455 44.3564 33.3985 44.3547 33.3514C44.3533 33.3179 44.3516 33.2845 44.3501 33.2511C44.3482 33.2106 44.3461 33.1702 44.3437 33.1298C44.3416 33.0935 44.3393 33.0573 44.3368 33.0211C44.3343 32.9838 44.3315 32.9466 44.3286 32.9094C44.3256 32.8716 44.3227 32.8338 44.3193 32.7961C44.3161 32.7597 44.3125 32.7234 44.309 32.687C44.3053 32.6496 44.3018 32.6121 44.2978 32.5746C44.2933 32.5323 44.2881 32.4903 44.2831 32.448C44.2775 32.4011 44.2718 32.3543 44.2656 32.3075C44.2588 32.2565 44.2522 32.2055 44.2448 32.1546C44.9674 32.3522 45.4999 33.0145 45.4999 33.7989C45.4998 34.5835 44.9673 35.2459 44.2447 35.4435Z"
        fill="#FAF2DA" />
    <path
        d="M44.0064 30.9669C43.1129 27.4892 40.6078 24.5983 37.2275 23.2473C36.6436 21.4239 34.9268 20.1627 33.0001 20.1627C31.0241 20.1627 29.3463 21.4609 28.7729 23.249C26.7371 24.0644 24.9937 25.44 23.7183 27.242C22.9125 28.3805 22.3316 29.6391 21.9914 30.9671C20.5243 31.0766 19.3638 32.3045 19.3638 33.7991C19.3638 35.2945 20.5255 36.523 21.9938 36.6314C23.2555 41.5314 27.7116 45.1627 33.0001 45.1627C38.2884 45.1627 42.7446 41.5314 44.0062 36.6314C45.4745 36.523 46.6363 35.2945 46.6363 33.799C46.6363 32.3037 45.4746 31.0753 44.0064 30.9669ZM20.5002 33.799C20.5002 33.0149 21.0325 32.3529 21.7546 32.155C21.7058 32.4931 21.6718 32.8345 21.6534 33.1786C21.6531 33.1834 21.6529 33.1881 21.6526 33.1929C21.6493 33.2555 21.6464 33.3182 21.6442 33.381C21.6433 33.4048 21.6428 33.4286 21.6421 33.4524C21.6408 33.4975 21.6393 33.5425 21.6385 33.5876C21.6372 33.6581 21.6365 33.7286 21.6365 33.799C21.6365 33.8851 21.6378 33.971 21.6399 34.0571C21.6404 34.0841 21.6412 34.1109 21.642 34.1378C21.6438 34.2003 21.6463 34.2629 21.6492 34.3255C21.6503 34.352 21.6514 34.3786 21.6527 34.4052C21.6569 34.4832 21.6619 34.5612 21.6676 34.6392C21.6703 34.6759 21.6735 34.7123 21.6765 34.7488C21.6804 34.7951 21.6844 34.8414 21.6889 34.8875C21.6927 34.9282 21.6967 34.969 21.7011 35.0095C21.7061 35.057 21.7118 35.1045 21.7174 35.1519C21.7248 35.214 21.7327 35.276 21.7411 35.3377C21.7459 35.3731 21.7503 35.4084 21.7554 35.4435C21.0329 35.2459 20.5002 34.5834 20.5002 33.799ZM33.0001 21.2992C34.1254 21.2992 35.1547 21.8771 35.7555 22.7817C35.7442 22.7816 35.7328 22.7816 35.7215 22.7816C35.7141 22.7816 35.707 22.7821 35.6996 22.7822C35.6968 22.7823 35.6939 22.7822 35.6911 22.7824C33.9219 22.7988 32.4878 24.2425 32.4878 26.0153C32.4878 26.7052 32.7045 27.3612 33.0939 27.9024C33.0627 27.9032 33.0313 27.9037 33.0001 27.9037C31.1793 27.9037 29.6979 26.4223 29.6979 24.6015C29.6979 22.7806 31.1792 21.2992 33.0001 21.2992ZM43.2235 34.0682C43.2232 34.0821 43.2224 34.0958 43.222 34.1097C43.2197 34.1858 43.2169 34.262 43.2129 34.3381C43.2122 34.3517 43.2111 34.3653 43.2103 34.3788C43.206 34.4548 43.2012 34.5309 43.1953 34.6069C43.1941 34.6222 43.1924 34.6374 43.1912 34.6528C43.1851 34.7262 43.1784 34.7995 43.1708 34.8728C43.1687 34.8932 43.1661 34.9135 43.1638 34.9338C43.1564 35.0009 43.1486 35.0679 43.1399 35.1349C43.1362 35.1629 43.132 35.1908 43.1281 35.2187C43.1201 35.2766 43.1119 35.3344 43.1028 35.3921C43.0969 35.4297 43.0905 35.467 43.0841 35.5044C43.0763 35.5511 43.0685 35.5978 43.06 35.6443C43.0513 35.6917 43.0421 35.7388 43.0328 35.7858C43.0259 35.8211 43.0189 35.8564 43.0116 35.8916C42.0433 40.5307 37.9222 44.0263 33 44.0263C28.0741 44.0263 23.9506 40.5257 22.9862 35.8816C22.9774 35.8395 22.9694 35.7972 22.9612 35.7549C22.9534 35.7145 22.9453 35.6741 22.938 35.6336C22.9275 35.5762 22.918 35.5185 22.9085 35.4608C22.9042 35.4344 22.8994 35.4079 22.8953 35.3814C22.8841 35.3084 22.8737 35.2354 22.8639 35.1621C22.8623 35.1497 22.8602 35.1374 22.8587 35.1249C22.8475 35.0387 22.8373 34.9522 22.8283 34.8657C22.8283 34.8653 22.8282 34.8648 22.8282 34.8645C22.7914 34.5108 22.7728 34.1549 22.7728 33.7992C22.7728 33.7189 22.7741 33.6386 22.776 33.5583C22.7767 33.532 22.7775 33.5056 22.7784 33.4793C22.78 33.4253 22.7823 33.3713 22.7848 33.3173C22.7863 33.2859 22.7876 33.2544 22.7894 33.223C22.7921 33.1752 22.7955 33.1273 22.7989 33.0796C22.8048 32.997 22.8115 32.9146 22.8193 32.8324C22.8202 32.823 22.8209 32.8135 22.8218 32.8042C23.1711 29.2678 25.3612 26.1295 28.5619 24.5836C28.5619 24.5897 28.5615 24.5956 28.5615 24.6016C28.5615 25.0083 28.6175 25.402 28.7205 25.7764C27.7006 26.3195 26.8051 27.0431 26.0544 27.9327C25.852 28.1725 25.8824 28.531 26.1222 28.7333C26.2289 28.8233 26.359 28.8672 26.4884 28.8672C26.65 28.8672 26.8106 28.7986 26.9229 28.6655C27.557 27.914 28.3092 27.2981 29.1633 26.8289C29.9331 28.1498 31.3642 29.0401 33.0001 29.0401C33.5017 29.0401 33.9947 28.9567 34.4649 28.7923C34.6697 28.7206 34.8159 28.5386 34.8416 28.3231C34.8672 28.1077 34.7679 27.8963 34.5856 27.7787C33.9836 27.3898 33.6242 26.7307 33.6242 26.0154C33.6242 24.8824 34.5274 23.957 35.6516 23.9199C39.4258 24.9297 42.2327 27.9814 43.0103 31.7008C43.0232 31.7623 43.0357 31.8239 43.0473 31.8857C43.0534 31.918 43.059 31.9505 43.0649 31.9829C43.074 32.0334 43.0829 32.0841 43.0912 32.1348C43.0962 32.1651 43.1009 32.1955 43.1057 32.226C43.1145 32.2831 43.1229 32.3402 43.1306 32.3974C43.1339 32.4212 43.1374 32.445 43.1405 32.4689C43.1621 32.6349 43.1798 32.8017 43.1933 32.9687C43.1949 32.9878 43.1961 33.0071 43.1975 33.0263C43.2024 33.0906 43.2067 33.1549 43.2103 33.2193C43.2117 33.2443 43.213 33.2693 43.2143 33.2944C43.2174 33.3556 43.2197 33.4169 43.2216 33.4782C43.2224 33.5019 43.2232 33.5256 43.2239 33.5493C43.2259 33.6326 43.2272 33.7159 43.2272 33.7991C43.2271 33.8888 43.2259 33.9786 43.2235 34.0682ZM44.2447 35.4435C44.2509 35.4006 44.2565 35.3575 44.2623 35.3144C44.2684 35.2689 44.2742 35.2233 44.2798 35.1776C44.2868 35.1203 44.2935 35.0628 44.2996 35.0054C44.3036 34.9678 44.3073 34.9301 44.3108 34.8923C44.3156 34.8428 44.3199 34.7934 44.324 34.7439C44.3269 34.7096 44.3299 34.6754 44.3324 34.641C44.3383 34.5621 44.3433 34.4832 44.3475 34.4041C44.3489 34.3787 44.3498 34.3532 44.351 34.3276C44.3539 34.2641 44.3563 34.2006 44.3582 34.137C44.359 34.1105 44.3597 34.084 44.3604 34.0575C44.3623 33.9713 44.3637 33.8852 44.3637 33.799C44.3637 33.724 44.3628 33.6491 44.3613 33.5741C44.3607 33.5469 44.3598 33.5198 44.3591 33.4925C44.3579 33.4455 44.3564 33.3985 44.3547 33.3514C44.3533 33.3179 44.3516 33.2845 44.3501 33.2511C44.3482 33.2106 44.3461 33.1702 44.3437 33.1298C44.3416 33.0935 44.3393 33.0573 44.3368 33.0211C44.3343 32.9838 44.3315 32.9466 44.3286 32.9094C44.3256 32.8716 44.3227 32.8338 44.3193 32.7961C44.3161 32.7597 44.3125 32.7234 44.309 32.687C44.3053 32.6496 44.3018 32.6121 44.2978 32.5746C44.2933 32.5323 44.2881 32.4903 44.2831 32.448C44.2775 32.4011 44.2718 32.3543 44.2656 32.3075C44.2588 32.2565 44.2522 32.2055 44.2448 32.1546C44.9674 32.3522 45.4999 33.0145 45.4999 33.7989C45.4998 34.5835 44.9673 35.2459 44.2447 35.4435Z"
        stroke="#FAF2DA" stroke-width="0.4" mask="url(#path-2-outside-1_2318_723)" />
    <path
        d="M26.5401 34.4437L26.5401 34.4437C26.8118 33.43 27.7344 32.7221 28.7837 32.7221C29.8332 32.7221 30.7556 33.43 31.0273 34.4437C31.1156 34.7735 30.92 35.1125 30.5901 35.2009M26.5401 34.4437L27.7344 34.7638M26.5401 34.4437C26.4517 34.7735 26.6475 35.1125 26.9772 35.2009L26.9772 35.2009M26.5401 34.4437L26.9772 35.2009M30.5901 35.2009L30.5773 35.1531L30.5901 35.2009C30.5901 35.2009 30.5901 35.2009 30.5901 35.2009ZM30.5901 35.2009C30.5365 35.2152 30.4826 35.2221 30.4297 35.2221C30.1568 35.2221 29.9069 35.04 29.8329 34.7638C29.7059 34.2897 29.2743 33.9585 28.7836 33.9585C28.293 33.9585 27.8615 34.2897 27.7344 34.7638M27.7344 34.7638C27.646 35.0936 27.3071 35.2891 26.9772 35.2009M27.7344 34.7638L26.9772 35.2009"
        fill="#FAF2DA" stroke="#FAF2DA" stroke-width="0.1" />
    <path
        d="M34.973 34.4438L34.973 34.4438C35.2446 33.4301 36.1672 32.7221 37.2166 32.7221C38.266 32.7221 39.1885 33.4301 39.4601 34.4437C39.5485 34.7735 39.3528 35.1125 39.023 35.2009C39.023 35.2009 39.023 35.2009 39.023 35.2009L34.973 34.4438ZM34.973 34.4438C34.8847 34.7736 35.0804 35.1125 35.4102 35.2009M34.973 34.4438L35.4102 35.2009M35.4102 35.2009C35.7399 35.2893 36.079 35.0935 36.1673 34.7637L35.4102 35.2009Z"
        fill="#FAF2DA" stroke="#FAF2DA" stroke-width="0.1" />
    <path
        d="M34.8067 38.395L34.8067 38.395L34.0978 38.8451L34.0495 38.8322C34.0495 38.8322 34.0495 38.8322 34.0495 38.8322C33.9224 39.3063 33.4909 39.6375 33.0003 39.6375C32.5095 39.6375 32.078 39.3063 31.951 38.8322L31.951 38.8322C31.8626 38.5024 31.5236 38.3067 31.1938 38.395C30.864 38.4834 30.6684 38.8224 30.7567 39.1522C31.0284 40.166 31.9509 40.8739 33.0003 40.8739C34.0497 40.8739 34.9722 40.1659 35.2439 39.1522L35.2439 39.1522C35.3321 38.8224 35.1364 38.4834 34.8067 38.395Z"
        fill="#FAF2DA" stroke="#FAF2DA" stroke-width="0.1" />
</svg>