<svg width="65" height="65" viewBox="0 0 65 65" fill="none" xmlns="http://www.w3.org/2000/svg">
    <rect width="65" height="65" rx="25" fill="#A1A4B2" />
    <g clip-path="url(#clip0_2318_719)">
        <path
            d="M42.788 34.1011C43.0337 34.1011 43.2444 34.3027 43.2444 34.5636V36.6272C43.2444 36.8762 43.0454 37.0897 42.788 37.0897H36.0581C35.8123 37.0897 35.6016 36.8881 35.6016 36.6272V34.5636C35.6016 34.3146 35.8006 34.1011 36.0581 34.1011H42.788ZM42.788 32.3221H36.0581C34.8409 32.3221 33.846 33.3302 33.846 34.5636V36.6272C33.846 37.8606 34.8409 38.8686 36.0581 38.8686H42.788C44.0052 38.8686 45 37.8606 45 36.6272V34.5636C45 33.3302 44.0052 32.3221 42.788 32.3221Z"
            fill="#FEFCF8" />
        <path
            d="M36.8188 21.7789C37.0646 21.7789 37.2753 21.9806 37.2753 22.2415V29.0607C37.2753 29.3098 37.0763 29.5232 36.8188 29.5232H34.7823C34.5365 29.5232 34.3259 29.3216 34.3259 29.0607V22.2415C34.3259 21.9924 34.5248 21.7789 34.7823 21.7789H36.8188ZM36.8188 20H34.7823C33.5651 20 32.5703 21.0081 32.5703 22.2415V29.0607C32.5703 30.2941 33.5651 31.3022 34.7823 31.3022H36.8188C38.0361 31.3022 39.0309 30.2941 39.0309 29.0607V22.2415C39.0309 21.0081 38.0478 20 36.8188 20Z"
            fill="#FEFCF8" />
        <path
            d="M30.5454 35.4768C30.7912 35.4768 31.0019 35.6784 31.0019 35.9393V42.7586C31.0019 43.0076 30.8029 43.2211 30.5454 43.2211H28.5089C28.2631 43.2211 28.0524 43.0195 28.0524 42.7586V35.9393C28.0524 35.6903 28.2514 35.4768 28.5089 35.4768H30.5454ZM30.5454 33.6979H28.5089C27.2917 33.6979 26.2968 34.7059 26.2968 35.9393V42.7586C26.2968 43.992 27.2917 45.0001 28.5089 45.0001H30.5454C31.7626 45.0001 32.7575 43.992 32.7575 42.7586V35.9393C32.7575 34.7059 31.7626 33.6979 30.5454 33.6979Z"
            fill="#FEFCF8" />
        <path
            d="M28.9419 28.0171C29.1877 28.0171 29.3984 28.2187 29.3984 28.4796V30.555C29.3984 30.8041 29.1994 31.0176 28.9419 31.0176H22.2121C21.9546 31.0176 21.7556 30.8041 21.7556 30.555V28.4796C21.7556 28.2306 21.9546 28.0171 22.2121 28.0171H28.9419V28.0171ZM28.9419 26.2382H22.2121C20.9949 26.2382 20 27.2462 20 28.4796V30.555C20 31.7884 20.9949 32.7965 22.2121 32.7965H28.9419C30.1592 32.7965 31.154 31.7884 31.154 30.555V28.4796C31.154 27.2462 30.1592 26.2382 28.9419 26.2382Z"
            fill="#FEFCF8" />
    </g>
    <defs>
        <clipPath id="clip0_2318_719">
            <rect width="25" height="25" fill="white" transform="translate(20 20)" />
        </clipPath>
    </defs>
</svg>