<svg version="1.2" xmlns="http://www.w3.org/2000/svg" viewBox="0 0 55 55" width="55" height="55">
	<title>heartTopNav-svg</title>
	<style>
		.s0 { opacity: .6;fill: #e28f83 } 
		.s1 { fill: #e28f83;stroke: #e28f83;stroke-linecap: round;stroke-linejoin: round;stroke-width: 2 } 
	</style>
	<path id="Layer" class="s0" d="m55 27.5c0 15.2-12.3 27.5-27.5 27.5-15.2 0-27.5-12.3-27.5-27.5 0-15.2 12.3-27.5 27.5-27.5 15.2 0 27.5 12.3 27.5 27.5z"/>
	<path id="Layer" class="s1" d="m35.8 27.6l-0.9 1.1-5.6 6.6c-0.6 0.8-1.7 0.8-2.4 0l-5.6-6.6-0.9-1.1c-2.1-2.4-1.8-6.6 0.8-8.7 1.9-1.5 4.5-1 6.1 0.9 0.5 0.5 1.2 0.5 1.6 0l0.2-0.1c1.8-2.3 4.9-2.3 6.8 0 1.8 2.2 1.8 5.7-0.1 7.9z"/>
</svg>