<svg xmlns="http://www.w3.org/2000/svg" width="24" height="24" fill="none">
    <path fill="#000" fill-rule="evenodd" d="M2 12.5h12v-1H2v1Z" clip-rule="evenodd" />
    <path fill="#4a503e" fill-rule="evenodd"
        d="m5.146 8.146-3.5 3.5a.5.5 0 0 0 0 .708l3.5 3.5.708-.707L2.707 12l3.147-3.146-.708-.708zM14.596 5c-2.678 0-5.004 1.546-6.15 3.813l-.892-.451C8.86 5.776 11.52 4 14.595 4c4.372 0 7.905 3.588 7.905 8s-3.533 8-7.905 8c-3.074 0-5.734-1.776-7.041-4.362l.892-.451C9.592 17.454 11.918 19 14.596 19c3.807 0 6.904-3.128 6.904-7s-3.097-7-6.905-7z"
        clip-rule="evenodd" />
</svg>