<svg version="1.2" xmlns="http://www.w3.org/2000/svg" viewBox="0 0 44 44" width="44" height="44">
	<title>nav-home-svg</title>
	<style>
		.s0 { fill: #e28f83 } 
		.s1 { fill: #faf2da } 
	</style>
	<path id="Form 1" class="s0" d="m0 20c0-11 9-20 20-20h4c11 0 20 9 20 20v4c0 11-9 20-20 20h-4c-11 0-20-9-20-20z"/>
	<path id="Layer" fill-rule="evenodd" class="s1" d="m32.5 21.3v9c0 1.5-1.2 2.7-2.7 2.7h-16.1c-1.5 0-2.7-1.2-2.7-2.7v-9c0-1 0.4-2 1.2-2.7l7.6-6.8c1.1-1.1 2.8-1.1 3.9 0l7.6 6.7c0.8 0.8 1.2 1.8 1.2 2.8zm-1.8 0c0-0.5-0.2-1.1-0.6-1.5l-7.6-6.7q-0.3-0.3-0.8-0.3-0.3 0-0.6 0.3l-7.7 6.8c-0.4 0.3-0.6 0.9-0.6 1.4v9c0 0.5 0.4 0.9 0.9 0.9h5.7v-5.8c0-0.5 0.4-0.9 0.9-0.9h2.9c0.5 0 0.9 0.4 0.9 0.9v5.8h5.7c0.5 0 0.9-0.4 0.9-0.9z"/>
</svg>