<svg version="1.2" xmlns="http://www.w3.org/2000/svg" viewBox="0 0 44 44" width="44" height="44">
	<title>nav-meditate-svg</title>
	<style>
		.s0 { fill: #e28f83 } 
		.s1 { fill: #faf2da } 
	</style>
	<path id="Form 1" class="s0" d="m0 20c0-11 9-20 20-20h4c11 0 20 9 20 20v4c0 11-9 20-20 20h-4c-11 0-20-9-20-20z"/>
	<path id="Layer" fill-rule="evenodd" class="s1" d="m21.2 33c-0.5 0-5.4-0.1-7.3-2.4-0.8-0.8-1-1.9-0.8-3v-0.1q0-0.1 0-0.2l0.4-1.4c0.2-1 0.5-1.8 0.9-2.6 0.4-0.9 0.8-1.7 1.5-2.6 0.9-1.2 1.9-2.6 3.3-3.4 0.4-0.3 1.1-0.6 2-0.5 0.9-0.1 1.6 0.2 2 0.5 1.4 0.8 2.4 2.1 3.3 3.4 0.7 0.9 1.1 1.7 1.5 2.6q0.6 1.4 1.1 3.2l0.2 0.8c0.3 1.2 0.1 2.3-0.7 3.2-1.9 2.4-6.8 2.5-7.4 2.5zm-6.1-6.2l-0.2 1c-0.1 0.7 0 1.2 0.3 1.6 1.3 1.5 4.8 1.8 6 1.8 1.3 0 4.9-0.3 6-1.8 0.4-0.5 0.5-1 0.3-1.7l-0.1-0.7q-0.5-1.7-1-3c-0.3-0.8-0.8-1.5-1.3-2.3-0.8-1-1.7-2.2-2.8-2.8q-0.5-0.4-1-0.3h-0.1-0.1c-0.3-0.1-0.7 0-1 0.3-1.1 0.6-2 1.8-2.7 2.8-0.6 0.8-1 1.5-1.3 2.3q-0.5 1.1-0.9 2.4z"/>
	<path id="Layer" fill-rule="evenodd" class="s1" d="m27.5 18c-1.9 0-3.5-1.6-3.5-3.5 0-1.9 1.6-3.5 3.5-3.5 1.9 0 3.5 1.6 3.5 3.5 0 1.9-1.6 3.5-3.5 3.5zm0-5.2c-0.9 0-1.7 0.8-1.7 1.7 0 0.9 0.8 1.7 1.7 1.7 0.9 0 1.7-0.8 1.7-1.7 0-0.9-0.8-1.7-1.7-1.7z"/>
</svg>