<svg version="1.2" xmlns="http://www.w3.org/2000/svg" viewBox="0 0 44 44" width="44" height="44">
	<title>nav-music-svg</title>
	<style>
		.s0 { fill: #e28f83 } 
		.s1 { fill: #faf2da } 
	</style>
	<path id="Form 1" class="s0" d="m0 20c0-11 9-20 20-20h4c11 0 20 9 20 20v4c0 11-9 20-20 20h-4c-11 0-20-9-20-20z"/>
	<path id="Layer" fill-rule="evenodd" class="s1" d="m20.8 23.6v3.9c0 1-0.3 1.9-0.8 2.7-0.9 1.7-2.7 2.8-4.7 2.8h-0.8c-3 0-5.5-2.5-5.5-5.5v-0.5c0-3.1 2.5-5.5 5.5-5.5h4.2q0.1 0 0.3 0c1 0.1 1.8 1 1.8 2.1zm-1.8 0c0-0.2-0.2-0.3-0.3-0.3h-4.2c-2 0-3.7 1.6-3.7 3.7v0.5c0 2 1.7 3.7 3.7 3.7h0.8c2 0 3.7-1.7 3.7-3.7z"/>
	<path id="Layer" fill-rule="evenodd" class="s1" d="m34.8 16v8.8q0 0.7-0.1 1.3-0.2 0.8-0.6 1.5c-0.8 1.5-2.3 2.4-4.1 2.4h-0.6c-2.6 0-4.8-2.1-4.8-4.7v-0.4c0-2.7 2.2-4.8 4.8-4.8h3.5q0.1 0 0.2 0v-4.1c0-1.8-1.4-3.2-3.2-3.2h-1-4.3c-2.1 0-3.8 1.7-3.8 3.8v10.9c0 1-0.3 1.9-0.8 2.7-0.6-0.9-1-2.1-1-3.3v-10.3c0-3.1 2.5-5.6 5.6-5.6h4.7 0.6c2.7 0 4.9 2.3 4.9 5zm-1.6 5.9q0-0.1-0.1-0.2-0.1 0-0.2 0h-3.5c-1.8 0-3.2 1.4-3.2 3.2v0.4c0 1.7 1.4 3.2 3.2 3.2h0.6c1.5 0 2.8-1.1 3.1-2.5q0.1-0.4 0.1-0.7z"/>
</svg>