<svg version="1.2" xmlns="http://www.w3.org/2000/svg" viewBox="0 0 44 44" width="44" height="44">
	<title>nav-moon-svg</title>
	<style>
		.s0 { fill: #e28f83 } 
		.s1 { fill: #faf2da } 
	</style>
	<path id="Form 1" class="s0" d="m0 20c0-11 9-20 20-20h4c11 0 20 9 20 20v4c0 11-9 20-20 20h-4c-11 0-20-9-20-20z"/>
	<path id="Layer" fill-rule="evenodd" class="s1" d="m22.5 33c-6.4 0-11.5-5.1-11.5-11.5 0-4.5 2.6-8.6 6.8-10.4 0.2-0.1 0.5-0.1 0.7 0 0.2 0.2 0.4 0.4 0.4 0.7 0.1 6.1 5.2 11.1 11.3 11.1q1.3 0 2.6-0.3c0.3-0.1 0.6 0 0.7 0.2 0.2 0.2 0.3 0.4 0.3 0.7-1 5.5-5.7 9.5-11.3 9.5zm-5.1-19.9c-3 1.8-4.8 5-4.8 8.4 0 5.5 4.4 9.9 9.9 9.9 4.4 0 8.2-2.9 9.4-7q-0.8 0.1-1.7 0.1c-6.5 0-12.1-5-12.8-11.4z"/>
</svg>